<svg width="274" height="34" fill="none" xmlns="http://www.w3.org/2000/svg"><path fill-rule="evenodd" clip-rule="evenodd" d="m90.063 11.57-.923 1.135c-.426.524-1.035 1.282-1.354 1.685-.319.403-.664.785-.768.85a.431.431 0 0 0-.188.325c0 .114-.132.277-.293.364-.339.18-.367.34-.11.612.1.106.476.622.835 1.146.358.524.737 1.005.842 1.07.105.064.191.18.191.256 0 .145.961 1.568 1.235 1.828.086.082.223.258.304.39.325.532 1.753 2.55 1.932 2.73.215.217.233.337.104.674-.08.207-.786.233-6.411.24l-6.322.007-1.313 1.605c-.723.882-1.355 1.604-1.406 1.604-.083 0-.431.656-.431.813 0 .036 4.188.066 9.307.066h9.308l.701.367c.494.258.891.638 1.342 1.282.352.504.728.968.834 1.033.107.064.195.18.195.258 0 .077.28.497.622.934l.623.794 3.92.01c2.322.007 3.92-.044 3.92-.125 0-.075-.099-.235-.22-.356-.121-.12-.22-.262-.22-.313 0-.051-.197-.337-.438-.633-.38-.47-1.492-1.963-3.998-5.376-.355-.483-.953-1.292-1.328-1.796-.376-.505-.683-.983-.683-1.063 0-.08-.06-.145-.135-.145-.074 0-.267-.214-.43-.476a7.07 7.07 0 0 0-.561-.777 5.704 5.704 0 0 1-.413-.526c-.289-.444-1.616-2.237-1.832-2.474a4.207 4.207 0 0 1-.366-.473c-.08-.127-.641-.903-1.246-1.724a168.514 168.514 0 0 1-1.318-1.809c-.921-1.322-3.139-4.196-3.237-4.196-.067 0-.189.083-.271.183Zm-85.439.91c-1.852.439-2.622.963-3.217 2.192-.335.692-.364.936-.417 3.48-.076 3.682.24 4.754 1.681 5.723 1.235.829 1.939.882 12.43.946 6.678.04 9.624.107 9.855.223.315.159.33.245.325 1.936-.005 1.512-.045 1.818-.28 2.1l-.275.33H12.495c-10.372 0-12.257.031-12.403.207-.133.16-.124.395.04 1.021.48 1.839 1.726 2.566 4.93 2.878 1.825.178 19.003.176 20.833-.002 1.723-.168 3.231-.531 3.592-.866.147-.137.369-.287.492-.335.123-.046.42-.472.659-.945l.436-.86v-7.032l-.44-.801c-.307-.56-.644-.927-1.115-1.218-1.426-.877-1.475-.881-12.2-.943-8.573-.05-9.842-.086-10.147-.286-.334-.219-.35-.302-.35-1.875 0-1.408.039-1.68.268-1.888.245-.221 1.264-.242 11.632-.242h11.364l.182-.44c.244-.59.023-1.108-.836-1.954-.476-.47-.972-.767-1.78-1.067l-1.12-.416-10.551-.028c-8.23-.021-10.728.015-11.357.163Zm35.198.12-.323.344v20.715h6.594v-3.933c0-3.573.024-3.956.259-4.168.23-.209 1.342-.24 10.148-.284 8.036-.04 9.985-.088 10.401-.255 1.106-.442 1.818-.975 2.262-1.695l.45-.728.043-3.6c.042-3.454.03-3.628-.282-4.322-.427-.948-1.064-1.473-2.363-1.947l-1.062-.389-12.903-.04-12.902-.04-.322.343Zm74.703-.24c-1.235.205-2.444.712-2.945 1.236-1.135 1.187-1.085.751-1.085 9.366v7.693l.471.806c.784 1.344 1.811 1.797 4.658 2.055 1.925.175 18.355.175 20.151 0 3.355-.327 4.682-1.207 4.809-3.19l.058-.916-11.41-.005-11.41-.004-.403-.355-.403-.355.001-5.978.001-5.978.451-.257c.418-.238 1.267-.256 11.941-.256 8.235 0 11.491-.046 11.491-.16 0-.09-.107-.529-.237-.978-.342-1.176-1.031-1.85-2.4-2.347l-1.099-.399-11.137-.019c-6.125-.01-11.301.008-11.503.041Zm35.022 2.03v2.126l14.47-.037 14.47-.037v-4.104l-14.47-.037-14.47-.037v2.126Zm37.097-1.752c-.236.519-.213.939.058 1.043.126.048.373.209.55.356.336.282 2.17 1.63 3.008 2.211.269.187.706.521.972.743.265.222.519.403.565.403.1 0 1.952 1.368 2.39 1.766.173.157.353.285.402.285.048 0 .467.288.931.639 1.216.918 1.41 1.002 1.894.818.226-.086.444-.207.486-.27.095-.14 2.231-1.294 4.179-2.255.806-.398 1.494-.75 1.529-.783.094-.086-.915-1.07-1.103-1.075-.088-.002-.28-.136-.426-.297-.145-.162-.353-.293-.462-.293-.108 0-.197-.05-.198-.11-.001-.06-.248-.273-.549-.471a10.517 10.517 0 0 1-.769-.549c-.425-.363-1.94-1.426-1.94-1.426s-.95-.69-1.085-.838c-.228-.252-.573-.27-5.253-.27h-5.009l-.17.373ZM62.23 16.39c.864.393 1.008.728 1.008 2.347 0 .783-.061 1.584-.136 1.78-.079.208-.406.49-.779.67-.63.305-.796.31-8.168.31-6.797 0-7.552-.022-7.794-.242-.237-.214-.267-.498-.267-2.473 0-2.146.012-2.24.33-2.465.293-.21 1.145-.232 7.802-.201 6.574.03 7.537.062 8.004.274Zm87.317 10.163v7.107h28.721v-3.956h-10.629c-9.538 0-10.666-.024-10.99-.237l-.362-.236v-2.742c0-2.677.008-2.75.339-3.06.337-.317.38-.32 6.375-.32h6.035v-3.663h-19.489v7.107Zm60.152-3.85c-.242.175-.65.486-.908.692-.258.206-.643.506-.855.667-.212.162-.462.36-.556.442-.095.081-.6.486-1.124.9-.524.413-1.08.892-1.235 1.063-.278.309-.278.316 0 .529.533.408 1.37 1.023 1.89 1.389.726.511 2.74 1.996 3.021 2.226.128.106.332.258.454.338 1.095.724 1.396.945 1.568 1.153.109.132.278.24.375.24.097 0 .331.164.521.366.189.201.401.366.471.366.07 0 .269.132.442.293.301.281.517.293 5.168.293h4.855l.251-.528c.25-.523.249-.531-.117-.87-.203-.189-.815-.657-1.36-1.042-.546-.385-1.044-.785-1.109-.888-.064-.104-.176-.189-.249-.189-.112 0-1.255-.793-2.418-1.677-1.113-.847-3.078-2.278-3.429-2.499a1.603 1.603 0 0 1-.307-.238c-.041-.05-.308-.25-.594-.442a33.13 33.13 0 0 1-1.246-.905c-1.67-1.273-2.727-2.005-2.893-2-.097.002-.374.147-.616.322Z" fill="#fff"/><path d="M270.731.106c-2.722.112-7.878.59-11.283 1.044a156.79 156.79 0 0 1-3.37.417c-1.473.152-4.654.67-6.817 1.11-.969.196-1.925.357-2.125.357-.2 0-1.089.166-1.975.37-.887.204-2.239.504-3.004.666-2.457.522-4.089.924-5.651 1.393-.649.195-1.3.355-1.446.355-.146 0-.768.16-1.383.355-.615.195-1.712.534-2.437.754-.725.219-1.714.531-2.198.693-.484.163-1.077.346-1.319.407-.242.06-1.099.352-1.905.648a206.638 206.638 0 0 1-3.892 1.393 11.77 11.77 0 0 0-1.246.506c-.237.123-.511.225-.61.225-.099 0-.528.159-.953.351a84.5 84.5 0 0 1-1.725.753c-.926.391-1.678.725-3.26 1.446-.423.193-2.084.996-3.69 1.784-2.665 1.308-3.939 1.977-5.578 2.928-.323.188-.909.526-1.303.753-.394.226-.822.479-.952.56-.13.082-.566.344-.969.584-.961.57-2.152 1.34-2.375 1.532-.097.085-.209.154-.247.154-.039 0-.504.296-1.034.659-.529.363-1.02.66-1.09.66-.07 0-.216.106-.324.237-.165.199-1.791 1.378-2.603 1.887-.128.08-.301.218-.383.306-.083.088-.579.483-1.102.88-.524.395-1.006.802-1.07.902a.434.434 0 0 1-.322.183c-.113 0-.258.094-.323.208-.064.114-.809.78-1.656 1.482-2.085 1.728-3.366 3.01-3.363 3.366.001.161.162.474.357.696l.355.403h8.751l.43-.456c.337-.356 3.89-3.61 5.047-4.622a37.703 37.703 0 0 1 1.55-1.296c.982-.776 1.738-1.397 2.06-1.692.173-.157.384-.287.469-.287.086 0 .208-.089.273-.197.064-.11.521-.473 1.016-.808.494-.335.981-.708 1.08-.828.1-.12.262-.218.361-.218.098 0 .301-.135.45-.3.149-.165.522-.441.829-.613.306-.173.557-.367.557-.433s.059-.12.13-.12c.166 0 1.979-1.198 2.044-1.35.027-.063.129-.115.226-.115.098 0 .307-.098.464-.218.556-.422 1.768-1.179 2.561-1.598.442-.233.902-.506 1.023-.606.12-.1.483-.322.806-.493.588-.313.712-.385 1.718-1 .301-.184.624-.334.719-.334.095 0 .389-.165.653-.367.264-.201.552-.366.639-.366.088 0 .421-.165.74-.366.319-.202.649-.367.732-.367.084 0 .414-.164.733-.366.319-.201.649-.366.733-.366.084 0 .413-.165.733-.367.319-.201.631-.365.693-.364.062.002.442-.159.845-.356.403-.198 1.03-.488 1.392-.646a96.4 96.4 0 0 0 1.493-.669c.459-.21.875-.383.925-.383.051 0 .453-.164.893-.366.44-.201.854-.366.918-.366.065 0 .442-.165.839-.366.396-.201.801-.366.9-.366.098 0 .527-.16.952-.353.425-.193.905-.386 1.066-.427.162-.042.953-.32 1.759-.619a48.04 48.04 0 0 1 2.124-.738 168.54 168.54 0 0 0 2.711-.868c2.749-.9 5.129-1.582 8.06-2.31.806-.2 1.927-.48 2.491-.622.564-.141 1.355-.32 1.758-.398a76.05 76.05 0 0 0 2.231-.494c.823-.193 1.646-.352 1.829-.352.182 0 1.123-.16 2.092-.357 2.389-.483 6.286-1.045 9.821-1.414 1.611-.169 3.293-.359 3.736-.422.996-.143.638-.144-2.784-.002Z" fill="url(#a)"/><defs><linearGradient id="a" x1="185.806" y1="33.556" x2="274.02" y2="0" gradientUnits="userSpaceOnUse"><stop stop-color="#D05217"/><stop offset="1" stop-color="#EE8521"/></linearGradient></defs></svg>